<?xml version="1.0" encoding="UTF-8"?>
<svg width="69px" height="59px" viewBox="0 0 69 59" version="1.1" xmlns="http://www.w3.org/2000/svg" xmlns:xlink="http://www.w3.org/1999/xlink">
    <!-- Generator: Sketch 63.1 (92452) - https://sketch.com -->
    <title>2hire Logo</title>
    <desc>Created with Sketch.</desc>
    <defs>
        <path d="M37.0352538,0 L37.0352538,18.9285603 L37.1761944,18.9285603 C38.1630022,17.2618969 39.6314377,15.8690165 41.5814265,14.749919 C43.5315644,13.6309197 45.7048521,13.07142 48.1013639,13.07142 C52.0954759,13.07142 55.2437952,14.1190355 57.5463218,16.2142739 C59.8487739,18.3095124 61,21.4523739 61,25.6428508 L61,51 L52.9647462,51 L52.9647462,27.7857113 C52.870761,24.8809445 52.2599687,22.7737798 51.1322203,21.4642095 C50.0043974,20.1547298 48.2423045,19.5 45.8458672,19.5 C44.4831184,19.5 43.2613848,19.7499695 42.1806663,20.2499209 C41.0998733,20.7499705 40.1835731,21.4404476 39.4317657,22.3213522 C38.6798837,23.2023549 38.0924946,24.2380894 37.6695983,25.4285633 C37.2467019,26.6190446 37.0352538,27.8809477 37.0352538,29.2142799 L37.0352538,42.0267587 L29,42.0267587 L29,29.8914787 C30.1149288,28.8750195 31.0982336,27.7244636 32.0283968,26.5357496 C33.1870761,25.0145429 34.1088172,23.3465728 34.793471,21.5318471 C35.4781993,19.7171364 35.8205262,17.6889161 35.8205262,15.4472014 C35.8205262,13.6324831 35.5308936,11.7243337 34.9514795,9.72275304 C34.3721398,7.72127812 33.3845867,5.86652874 31.9888202,4.15855775 C31.1232764,3.10709779 30.1162704,2.17414517 29,1.4020725 L29,0 L37.0352538,0 Z" id="path-1"></path>
        <filter x="-21.9%" y="-9.8%" width="143.8%" height="127.5%" filterUnits="objectBoundingBox" id="filter-2">
            <feOffset dx="0" dy="2" in="SourceAlpha" result="shadowOffsetOuter1"></feOffset>
            <feGaussianBlur stdDeviation="2" in="shadowOffsetOuter1" result="shadowBlurOuter1"></feGaussianBlur>
            <feColorMatrix values="0 0 0 0 0   0 0 0 0 0   0 0 0 0 0  0 0 0 0.25 0" type="matrix" in="shadowBlurOuter1"></feColorMatrix>
        </filter>
        <path d="M37,51 L0,51 C0.0472075629,46.8571381 1.03850649,43.2380876 2.97389677,40.1428486 C4.90928705,37.0476095 7.55274585,34.3571383 10.9042807,32.0714198 C12.5092704,30.8809462 14.1850079,29.726206 15.9315754,28.6072069 C17.6781429,27.4881095 19.2831252,26.285702 20.7464473,25 C22.2097695,23.7142744 23.4135062,22.3214395 24.3575825,20.8214873 C25.3017338,19.3214444 25.7973196,17.5952255 25.8445646,15.6428457 C25.8445646,14.7380812 25.7383944,13.773776 25.5259791,12.749915 C25.3135638,11.7261523 24.9004882,10.7737733 24.2868274,9.89277071 C23.6731665,9.01186628 22.8234303,8.27377488 21.7377687,7.67848896 C20.6520322,7.08329368 19.2358802,6.7857338 17.4893127,6.7857338 C15.8844053,6.7857338 14.5508384,7.10715376 13.4888367,7.75005409 C12.4266853,8.39286379 11.5769491,9.27382109 10.9397556,10.3929109 C10.3024423,11.5119176 9.83039658,12.8333233 9.52361107,14.3571281 C9.2167357,15.8809404 9.03969798,17.5237963 8.99249042,19.2857034 L0.920491322,19.2857034 C0.920491322,16.5237954 1.28635181,13.9642941 2.01807278,11.6071993 C2.74969641,9.25000633 3.84718053,7.21427108 5.31052513,5.49997845 C6.77386973,3.78566316 8.55582233,2.44046532 10.6563829,1.46423387 C12.7570259,0.488077958 15.1999143,0 17.9849734,0 C21.0061076,0 23.5315063,0.500011774 25.5613192,1.49995979 C27.5911321,2.49998334 29.2314546,3.76187106 30.4823614,5.28569848 C31.7333431,6.8095259 32.6184194,8.46424765 33.1376651,10.2499166 C33.6569109,12.0356762 33.9165712,13.7380803 33.9165712,15.357129 C33.9165712,17.3571308 33.6097408,19.1666522 32.9960799,20.7857009 C32.382419,22.4047496 31.5563428,23.8928738 30.5178513,25.2500583 C29.4792849,26.6071598 28.2992081,27.8571363 26.9774713,28.999988 C25.6557344,30.1428472 24.2868274,31.2142773 22.8706753,32.2142782 C21.4545233,33.2142791 20.0383713,34.166658 18.6222193,35.0714225 C17.2060673,35.976187 15.8961604,36.880944 14.6924985,37.7857085 C13.4887618,38.690473 12.4384404,39.6309256 11.5415341,40.6070665 C10.6446578,41.5833055 10.0309969,42.6190398 9.70055894,43.7142771 L37,43.7142771 L37,51 Z" id="path-3"></path>
        <filter x="-18.9%" y="-9.8%" width="137.8%" height="127.5%" filterUnits="objectBoundingBox" id="filter-4">
            <feOffset dx="0" dy="2" in="SourceAlpha" result="shadowOffsetOuter1"></feOffset>
            <feGaussianBlur stdDeviation="2" in="shadowOffsetOuter1" result="shadowBlurOuter1"></feGaussianBlur>
            <feColorMatrix values="0 0 0 0 0   0 0 0 0 0   0 0 0 0 0  0 0 0 0.25 0" type="matrix" in="shadowBlurOuter1"></feColorMatrix>
        </filter>
    </defs>
    <g id="Symbols" stroke="none" stroke-width="1" fill="none" fill-rule="evenodd">
        <g id="NavBar" transform="translate(-49.000000, -21.000000)">
            <g id="Navbar">
                <g id="2hire-Logo" transform="translate(53.000000, 23.000000)">
                    <g id="Fill-2">
                        <use fill="black" fill-opacity="1" filter="url(#filter-2)" xlink:href="#path-1"></use>
                        <use fill="#222222" fill-rule="evenodd" xlink:href="#path-1"></use>
                    </g>
                    <g id="Fill-3">
                        <use fill="black" fill-opacity="1" filter="url(#filter-4)" xlink:href="#path-3"></use>
                        <use fill="#222222" fill-rule="evenodd" xlink:href="#path-3"></use>
                    </g>
                </g>
            </g>
        </g>
    </g>
</svg>