<?xml version="1.0" encoding="UTF-8"?>
<svg width="24px" height="24px" viewBox="0 0 24 24" version="1.1" xmlns="http://www.w3.org/2000/svg" xmlns:xlink="http://www.w3.org/1999/xlink">
    <!-- Generator: Sketch 63.1 (92452) - https://sketch.com -->
    <title>Download Icon</title>
    <desc>Created with Sketch.</desc>
    <g id="Symbols" stroke="none" stroke-width="1" fill="none" fill-rule="evenodd">
        <g id="Vehicle's-Detail-Table" transform="translate(-930.000000, -2.000000)">
            <g id="Download-Icon_Details" transform="translate(930.000000, 2.000000)">
                <circle id="Oval" fill="#FFFFFF" cx="12" cy="12" r="12"></circle>
                <g id="download-2" stroke-width="1" transform="translate(7.000000, 7.000000)" fill="#999999">
                    <path d="M6.97755963,4.25425 C6.93705933,4.14983333 6.84805868,4.08333333 6.75005797,4.08333333 L5.75005068,4.08333333 L5.75005068,0.291666667 C5.75005068,0.130666667 5.63804987,0 5.50004886,0 L4.50004158,0 C4.36204057,0 4.25003976,0.130666667 4.25003976,0.291666667 L4.25003976,4.08333333 L3.25003248,4.08333333 C3.15203176,4.08333333 3.06303111,4.15041667 3.02253082,4.25425 C2.98153052,4.35866667 2.99753064,4.48058333 3.06203111,4.56691667 L4.81204385,6.90025 C4.8595442,6.96383333 4.9280447,7 5.00004522,7 C5.07204575,7 5.14054625,6.96325 5.18804659,6.90025 L6.93805934,4.56691667 C7.00305981,4.48116667 7.01805992,4.35866667 6.97755963,4.25425 Z" id="Path" fill-rule="nonzero"></path>
                    <path d="M8.66666667,6 L8.66666667,8.4 L1.33333333,8.4 L1.33333333,6 L0,6 L0,9.2 C0,9.6424 0.298666667,10 0.666666667,10 L9.33333333,10 C9.702,10 10,9.6424 10,9.2 L10,6 L8.66666667,6 Z" id="Path" fill-rule="nonzero"></path>
                </g>
            </g>
        </g>
    </g>
</svg>