<?xml version="1.0" encoding="UTF-8"?>
<svg width="34px" height="34px" viewBox="0 0 34 34" version="1.1" xmlns="http://www.w3.org/2000/svg" xmlns:xlink="http://www.w3.org/1999/xlink">
    <!-- Generator: Sketch 63.1 (92452) - https://sketch.com -->
    <title>gear</title>
    <desc>Created with Sketch.</desc>
    <g id="Symbols" stroke="none" stroke-width="1" fill="none" fill-rule="evenodd">
        <g id="NavBar" transform="translate(-1831.000000, -31.000000)" fill="#222222" fill-rule="nonzero">
            <g id="gear" transform="translate(1831.000000, 31.000000)">
                <path d="M21.1132634,22.4443563 C21.1857362,21.9719849 21.2210635,21.4866536 21.2210635,21 C21.2210635,20.5159912 21.1857362,20.0364787 21.114822,19.5670166 L23.4596686,17.6936646 C24.0100985,17.2530314 24.1620576,16.4558716 23.8129412,15.8345948 L22.2993241,13.1654052 C21.9473503,12.5457153 21.1914509,12.2799073 20.5402345,12.5470378 L17.7766559,13.6808879 C17.0220553,13.0614624 16.2032941,12.578776 15.3367373,12.2436727 L14.9167066,9.23937992 C14.8174786,8.53293866 14.2145774,8 13.5121884,8 L10.4878116,8 C9.78542259,8 9.1825214,8.53293866 9.08329334,9.24070233 L8.66326266,12.246582 C7.79514723,12.5861816 6.9680738,13.0744222 6.23477345,13.6808879 L3.45846666,12.5470378 C2.80725029,12.2812297 2.0526497,12.5470378 1.70067591,13.1654052 L0.188357567,15.8345948 C-0.163356415,16.4558716 -0.010098495,17.2559408 0.544487505,17.694987 L2.88673658,19.5556437 C2.81426374,20.0280151 2.77893648,20.5133464 2.77893648,21 C2.77893648,21.4840088 2.81426374,21.9635213 2.88517806,22.4329834 L0.540331357,24.3063354 C-0.010098495,24.7469686 -0.161797893,25.5441284 0.187058787,26.1654052 L1.69937713,28.8345948 C2.05109111,29.4529622 2.80725029,29.7187703 3.45846666,29.4529622 L6.22204526,28.3191121 C6.97664584,28.9385376 7.79514723,29.421224 8.66196381,29.7563273 L9.08199456,32.7606201 C9.1825214,33.4670613 9.78542259,34 10.4878116,34 L13.5121884,34 C14.2145774,34 14.8174786,33.4670613 14.9167066,32.7592977 L15.3367373,29.753418 C16.2048527,29.4138184 17.0319262,28.9255778 17.7652265,28.3191121 L20.5415333,29.4529622 C21.1956071,29.7200927 21.9489089,29.4542847 22.2993241,28.8345948 L23.8116424,26.1654052 C24.1633565,25.5441284 24.0100985,24.7440592 23.4555125,24.305013 L21.1132634,22.4443563 Z M12.0001299,26.0556437 C9.26200769,26.0556437 7.03483191,23.787679 7.03483191,21 C7.03483191,18.212321 9.26200769,15.9443563 12.0001299,15.9443563 C14.7379923,15.9443563 16.9651681,18.212321 16.9651681,21 C16.9651681,23.787679 14.7379923,26.0556437 12.0001299,26.0556437 Z" id="Shape"></path>
                <path d="M32.3979607,7.65663854 C32.4257199,7.43976713 32.4665579,7.22545912 32.4665579,7.0001282 C32.4665579,6.77454088 32.4257199,6.56048927 32.3979607,6.34336146 L33.7114521,5.38871696 C34.0042585,5.17594714 34.0859347,4.78655266 33.9022968,4.47995899 L32.7230638,2.51991288 C32.5394259,2.21485727 32.14706,2.08745172 31.808878,2.22459857 L30.2973352,2.83650412 C29.9284579,2.56631207 29.5363589,2.32816359 29.1034219,2.15461519 L28.9024345,0.613187337 C28.8557242,0.263270667 28.546636,0 28.1793602,0 L25.8222289,0 C25.4549531,0 25.1442634,0.263270667 25.0991547,0.613187337 L24.8979003,2.15461519 C24.4649633,2.32816359 24.0715297,2.5675938 23.703987,2.83650412 L22.1924442,2.22459857 C21.8529276,2.08745172 21.4605617,2.21331914 21.2769238,2.51991288 L20.0992924,4.47995899 C19.9153876,4.78527093 19.9970637,5.17440901 20.290137,5.38871696 L21.6036285,6.34336146 C21.5742677,6.56048927 21.5336966,6.77454088 21.5336966,7.0001282 C21.5336966,7.22545912 21.5742677,7.43976713 21.602027,7.65663854 L20.2888024,8.61153937 C19.9957291,8.82430926 19.914053,9.21344734 20.0976909,9.52004101 L21.2769238,11.4800872 C21.4605617,11.7853991 21.8529276,11.9125483 22.1911096,11.7754015 L23.7026525,11.1622142 C24.0715297,11.4324062 24.4636287,11.6705547 24.8965657,11.8441031 L25.0975531,13.3855309 C25.1442634,13.7369857 25.4533516,14 25.8206274,14 L28.1777587,14 C28.5453014,14 28.8557242,13.7369857 28.900833,13.3868127 L29.1020873,11.8453848 C29.5350244,11.6718364 29.9284579,11.4324062 30.2960006,11.1637522 L31.8075434,11.7754015 C32.14706,11.9125483 32.5394259,11.7866809 32.7230638,11.4800872 L33.9006952,9.52004101 C34.0846001,9.21472907 34.0029239,8.82559099 33.7098507,8.61153937 L32.3979607,7.65663854 Z M27.0001273,9.79997436 C25.3892918,9.79997436 24.0846086,8.54693937 24.0846086,7.0001282 C24.0846086,5.45306063 25.3892918,4.20002564 27.0001273,4.20002564 C28.6106958,4.20002564 29.915379,5.45306063 29.915379,7.0001282 C29.915379,8.54693937 28.6106958,9.79997436 27.0001273,9.79997436 Z" id="Shape"></path>
            </g>
        </g>
    </g>
</svg>